<svg viewBox="100 80 280 70" width="120" height="30" xmlns="http://www.w3.org/2000/svg" xmlns:bx="https://boxy-svg.com">
  <path d="M123.802 89.181h90.459a14 14 0 0114 14v37.862H123.802a14 14 0 01-14-14v-23.862a14 14 0 0114-14z"
    bx:shape="rect 109.802 89.181 118.459 51.862 14 14 0 14 1@6de59f53" paint-order="fill" fill="#754ffe" />
  <path
    d="M142.011 108.341q-.196-1.977-1.682-3.071-1.487-1.095-4.035-1.095-1.732 0-2.924.482-1.193.482-1.822 1.332-.629.849-.629 1.927-.032.899.384 1.568.417.67 1.152 1.152.735.482 1.699.833.964.351 2.058.596l3.006.719q2.189.49 4.018 1.307 1.83.817 3.169 2.009 1.34 1.193 2.083 2.81.743 1.617.76 3.708-.017 3.071-1.56 5.317-1.544 2.246-4.444 3.479-2.899 1.234-6.983 1.234-4.051 0-7.049-1.242-2.997-1.241-4.671-3.683-1.675-2.442-1.756-6.053h6.844q.114 1.683.972 2.802t2.303 1.682q1.446.564 3.275.564 1.797 0 3.129-.523 1.331-.522 2.066-1.454.735-.931.735-2.139 0-1.128-.661-1.895-.662-.768-1.928-1.307-1.266-.539-3.096-.98l-3.642-.915q-4.231-1.029-6.681-3.218-2.451-2.189-2.434-5.897-.017-3.038 1.625-5.309 1.642-2.271 4.517-3.545 2.875-1.274 6.534-1.274 3.724 0 6.509 1.274 2.786 1.274 4.337 3.545 1.552 2.271 1.601 5.26zM158.965 132.174h-7.58l11.549-33.455h9.115l11.533 33.455h-7.579l-8.38-25.81h-.262zm-.474-13.15h17.904v5.521h-17.904zM215.579 98.719v33.455h-6.109l-14.555-21.056h-.245v21.056h-7.073V98.719h6.207l14.441 21.04h.294v-21.04z"
    style="white-space:pre" fill="#fff" />
  <path
    d="M249.204 132.764h-11.859V99.309h11.957q5.048 0 8.69 2.002 3.643 2.001 5.612 5.741 1.968 3.741 1.968 8.952 0 5.227-1.968 8.984-1.969 3.758-5.636 5.767-3.667 2.009-8.764 2.009zm-4.786-6.06h4.492q3.136 0 5.284-1.119 2.149-1.119 3.235-3.48 1.086-2.36 1.086-6.101 0-3.708-1.086-6.06-1.086-2.353-3.226-3.463-2.14-1.111-5.277-1.111h-4.508zM301.541 116.037q0 5.472-2.067 9.311-2.066 3.839-5.619 5.856t-7.98 2.017q-4.459 0-8.004-2.025-3.545-2.026-5.603-5.865-2.058-3.838-2.058-9.294 0-5.473 2.058-9.311 2.058-3.839 5.603-5.857 3.545-2.017 8.004-2.017 4.427 0 7.98 2.017 3.553 2.018 5.619 5.857 2.067 3.838 2.067 9.311zm-7.171 0q0-3.545-1.054-5.979t-2.965-3.692q-1.911-1.258-4.476-1.258-2.564 0-4.476 1.258-1.911 1.258-2.964 3.692-1.054 2.434-1.054 5.979 0 3.544 1.054 5.978 1.053 2.434 2.964 3.692 1.912 1.258 4.476 1.258 2.565 0 4.476-1.258t2.965-3.692q1.054-2.434 1.054-5.978zM336.284 111.022h-7.155q-.196-1.389-.8-2.475-.604-1.086-1.552-1.854-.947-.768-2.181-1.176-1.233-.409-2.67-.409-2.598 0-4.525 1.283-1.928 1.282-2.99 3.724-1.061 2.442-1.061 5.922 0 3.577 1.07 6.011t2.997 3.676q1.928 1.241 4.46 1.241 1.421 0 2.638-.376 1.217-.375 2.164-1.102.948-.727 1.577-1.773.628-1.045.873-2.385l7.155.033q-.277 2.303-1.38 4.435-1.103 2.132-2.957 3.806-1.854 1.675-4.41 2.646-2.557.972-5.775.972-4.476 0-7.996-2.025-3.52-2.026-5.554-5.865-2.034-3.838-2.034-9.294 0-5.473 2.059-9.311 2.058-3.839 5.586-5.857 3.529-2.017 7.939-2.017 2.908 0 5.399.817t4.419 2.377q1.927 1.56 3.144 3.814t1.56 5.162zM359.509 108.931q-.196-1.977-1.683-3.071-1.486-1.095-4.035-1.095-1.731 0-2.924.482-1.192.482-1.821 1.332-.629.849-.629 1.927-.033.899.384 1.568.417.67 1.152 1.152.735.482 1.699.833.963.351 2.058.596l3.005.719q2.189.49 4.019 1.307 1.829.817 3.169 2.009 1.339 1.193 2.083 2.81.743 1.617.759 3.708-.016 3.071-1.56 5.317-1.543 2.246-4.443 3.479-2.899 1.234-6.983 1.234-4.051 0-7.049-1.242-2.997-1.241-4.672-3.683-1.674-2.442-1.756-6.053h6.845q.114 1.683.972 2.802.857 1.119 2.303 1.682 1.446.564 3.275.564 1.797 0 3.128-.523 1.332-.522 2.067-1.454.735-.931.735-2.139 0-1.128-.662-1.895-.661-.768-1.927-1.307-1.266-.539-3.096-.98l-3.643-.915q-4.23-1.029-6.681-3.218-2.45-2.189-2.434-5.897-.016-3.038 1.626-5.309 1.641-2.271 4.516-3.545t6.534-1.274q3.725 0 6.51 1.274 2.785 1.274 4.337 3.545 1.552 2.271 1.601 5.26z"
    style="white-space:pre" fill="#18113c" />
</svg>